Land_normalized_Motion_pl12
version=1
nRows=14
nColumns=43
inDegrees=yes
endheader
time		pelvis_tilt		pelvis_list		pelvis_rotation		pelvis_tx		pelvis_ty		pelvis_tz		hip_flexion_r		hip_adduction_r		hip_rotation_r		knee_angle_r		ankle_angle_r		subtalar_angle_r		mtp_angle_r		hip_flexion_l		hip_adduction_l		hip_rotation_l		knee_angle_l		ankle_angle_l		subtalar_angle_l		mtp_angle_l		lumbar_extension		lumbar_bending		lumbar_rotation		neck_flexion		neck_lateral_bending		neck_rotation		arm_flex_r		arm_add_r		arm_rot_r		elbow_flex_r		pro_sup_r		wrist_flex_r		wrist_dev_r		hand_finger_flex_r		arm_flex_l		arm_add_l		arm_rot_l		elbow_flex_l		pro_sup_l		wrist_flex_l		wrist_dev_l		hand_finger_flex_l		
1.101667		-0.205379		8.507890		86.088536		0.005277		0.658674		0.564460		65.126753		1.465495		0.451703		-106.151286		8.571178		-0.889356		31.211308		63.323730		-5.998936		0.997060		-105.040776		8.438926		9.036300		23.898938		-54.272604		-2.157206		-2.638035		-6.915056		-2.291377		6.313244		-21.161289		-22.089717		-22.578201		65.970627		114.952943		-10.553033		-2.918722		-0.401928		-25.263074		-15.800291		-30.658645		67.556354		84.595070		-15.721933		-11.139976		19.170347		
1.104899		-0.111569		8.971554		86.059650		0.005140		0.652788		0.563879		65.495676		1.391844		0.591532		-107.306970		8.600637		0.394291		32.273501		63.694560		-6.204988		1.172596		-106.239512		8.394500		9.694510		24.263178		-55.819920		-2.113695		-2.586895		-5.408328		-2.228773		6.265404		-18.556987		-22.682884		-21.317535		66.613350		115.126017		-10.842372		-2.631563		-0.288378		-22.817290		-16.496078		-29.831405		68.107333		84.695392		-16.019698		-10.805844		19.121768		
1.108131		-0.058315		9.191226		86.052229		0.004934		0.646272		0.563155		66.168768		1.326754		0.758486		-108.514805		8.441754		1.255483		33.003966		64.320424		-6.354104		1.332599		-107.439797		8.458061		10.080875		24.553640		-56.999529		-2.075938		-2.507958		-4.133310		-2.183548		6.099217		-16.037188		-23.342311		-20.076482		67.211148		115.288585		-10.798161		-2.583942		-0.116206		-20.542290		-17.387054		-28.749358		68.747864		84.969711		-15.912104		-10.616024		19.250564		
1.111364		-0.019149		9.433080		86.063315		0.004745		0.640074		0.562303		66.724525		1.242905		0.952181		-109.654776		8.522614		2.275963		33.991313		64.842259		-6.489938		1.491832		-108.555576		8.619656		10.604222		24.956843		-58.158545		-2.040236		-2.432346		-2.966377		-2.156244		6.002496		-13.468942		-23.967965		-18.821439		67.752582		115.447750		-10.897629		-2.437916		0.066744		-18.196103		-18.199398		-27.729928		69.374528		85.274754		-15.897240		-10.390332		19.452109		
1.114596		-0.008548		9.719297		86.043600		0.004604		0.633927		0.561314		67.199867		1.190382		1.211777		-110.784027		8.685813		3.449956		35.065637		65.274261		-6.655315		1.601198		-109.681606		8.971320		11.327086		25.468676		-59.313244		-2.052455		-2.413233		-1.844038		-2.147585		5.911549		-10.894307		-24.697013		-17.377201		68.354762		115.753654		-11.042953		-2.276194		0.288964		-16.033664		-19.062618		-26.699597		70.205643		85.786580		-15.858060		-10.172442		20.026115		
1.117828		-0.157323		9.959442		86.060373		0.004557		0.627721		0.560187		67.725617		1.074464		1.535787		-111.902185		8.687107		3.841253		38.326489		65.692698		-6.754107		1.523996		-110.743728		9.308736		11.766786		27.831080		-60.302641		-2.180002		-2.582290		-1.070804		-2.058352		6.089070		-8.195608		-25.413373		-15.653806		68.779991		115.856386		-11.840484		-2.019227		1.516895		-13.950942		-20.040410		-25.638995		71.084500		86.776084		-16.588202		-9.875186		23.096351		
1.121061		-0.136149		10.055614		86.054465		0.004544		0.621512		0.559113		68.355915		1.047393		1.616774		-112.970712		8.812369		4.191808		38.403862		66.285730		-6.962691		1.593381		-111.778309		9.546511		11.959234		27.950864		-61.131280		-2.187847		-2.411432		-0.254717		-2.047649		5.821770		-5.687236		-26.089967		-14.466140		69.269715		116.170826		-11.423045		-2.173669		1.678391		-11.672935		-20.993502		-24.404249		71.818304		87.098418		-16.268063		-9.833553		23.316182		
1.124293		-0.139834		10.297044		86.036888		0.004477		0.615636		0.557914		68.749263		0.991291		1.786231		-114.009279		9.401893		5.261211		38.609852		66.646676		-7.207546		1.611914		-112.819287		10.266534		12.806574		28.382555		-62.053421		-2.203598		-2.478816		0.386044		-2.110398		5.832388		-2.948506		-26.846691		-12.835597		69.761519		116.843847		-11.359746		-2.039316		1.817823		-9.677267		-21.930910		-23.351599		72.771208		87.807096		-16.435032		-9.796634		24.208098		
1.127525		-0.252139		10.421606		86.061327		0.004328		0.609586		0.556745		69.291175		0.845506		1.993022		-115.063096		9.980496		6.099677		38.679585		67.104834		-7.385881		1.493637		-113.815546		11.021953		13.431719		29.481499		-62.773870		-2.250561		-2.783535		0.816297		-2.166789		6.057100		0.023681		-27.633292		-10.791184		70.093533		117.578792		-11.615676		-1.724326		2.173307		-7.761987		-22.807894		-22.510707		73.741112		89.052791		-17.423662		-9.674946		26.796260		
1.130758		-0.287529		10.408235		86.091712		0.004295		0.603485		0.555782		69.959315		0.734434		1.980280		-116.025019		10.344340		6.187287		38.704141		67.748613		-7.593916		1.432286		-114.770865		11.325215		13.482696		29.633439		-63.373923		-2.256789		-2.687502		1.423489		-2.171329		5.978309		2.547503		-28.274122		-9.588155		70.658141		117.853488		-11.221299		-1.915468		2.357653		-5.489191		-23.911220		-21.146276		74.503577		89.527620		-17.141415		-9.621160		27.222080		
1.133990		-0.346063		10.395492		86.134448		0.004056		0.597407		0.554805		70.625612		0.558086		1.997416		-117.026186		10.869960		6.536328		38.133578		68.335135		-7.809138		1.272948		-115.705074		11.916062		13.628277		31.056354		-63.891040		-2.229140		-2.848167		1.770925		-2.256126		6.102165		5.465321		-29.102292		-7.547882		70.967215		118.116329		-11.669048		-1.821221		3.148750		-3.395259		-24.794698		-20.159587		75.372001		90.972616		-18.449116		-9.389273		30.527258		
1.137222		-0.390253		10.251742		86.163799		0.003911		0.590998		0.553770		71.438354		0.381025		1.958756		-118.017929		11.413838		6.899587		37.788681		69.051300		-8.083934		1.107231		-116.637445		12.653956		13.801934		32.087917		-64.244791		-2.199122		-2.879455		2.129272		-2.369600		6.157291		8.225260		-29.857044		-5.835600		71.384179		118.447985		-11.831645		-1.783513		3.768425		-1.239371		-25.790119		-18.932386		76.161310		92.047963		-19.290892		-9.264642		32.626788		
1.140455		-0.412851		9.911943		86.165144		0.003775		0.584266		0.552749		72.462491		0.227178		1.886720		-118.962898		11.895504		7.247264		37.763814		69.971170		-8.376996		0.971975		-117.584037		13.652084		14.044924		32.485160		-64.304876		-2.155616		-2.821675		2.259037		-2.564863		6.079415		10.942869		-30.532723		-4.219316		71.779581		119.025158		-11.864920		-1.579608		3.957573		0.999126		-26.727087		-17.621057		76.773444		93.128866		-19.768108		-9.120528		32.503984		
1.143687		-0.430968		9.553521		86.168291		0.003588		0.577499		0.551726		73.510406		0.051511		1.756683		-119.893660		12.300613		7.251883		37.675344		70.908513		-8.701168		0.768899		-118.517039		14.458399		14.011905		32.890470		-64.332598		-2.107795		-2.724457		2.475424		-2.707250		5.998005		13.589102		-31.264708		-2.597732		72.234524		119.405349		-12.012204		-1.447111		4.149118		3.248915		-27.627246		-16.365370		77.436644		94.398989		-19.964296		-8.839329		32.362922		
